<svg xmlns="http://www.w3.org/2000/svg" width="16" height="16" viewBox="0 0 16 16" fill="none">
  <path fill-rule="evenodd" clip-rule="evenodd" d="M16 8C16 12.4183 12.4183 16 8 16C3.58172 16 0 12.4183 0 8C0 3.58172 3.58172 0 8 0C12.4183 0 16 3.58172 16 8ZM9.54321 8.12092L10.1832 7.46669C10.5885 7.05425 10.8445 6.49247 10.8445 5.86669C10.8445 5.1123 10.5449 4.3888 10.0114 3.85537C9.47798 3.32193 8.75449 3.02225 8.0001 3.02225C7.2457 3.02225 6.52221 3.32193 5.98877 3.85537C5.45534 4.3888 5.15565 5.1123 5.15565 5.86669H6.57788C6.57788 5.4895 6.72772 5.12775 6.99443 4.86103C7.26115 4.59431 7.6229 4.44447 8.0001 4.44447C8.78232 4.44447 9.42232 5.07736 9.42232 5.86669C9.42232 6.25781 9.26587 6.61336 9.00276 6.86936L8.12099 7.76536C7.60899 8.27736 7.28899 8.98847 7.28899 9.77781V10.1334H8.71121C8.71121 9.06669 9.03121 8.63292 9.54321 8.12092ZM7.28899 11.5556V12.9778H8.71121V11.5556H7.28899Z" fill="#3271D2"/>
</svg>